<?xml version="1.0" encoding="UTF-8"?>
<svg width="190px" height="62px" viewBox="0 -10 190 62" version="1.1" xmlns="http://www.w3.org/2000/svg" xmlns:xlink="http://www.w3.org/1999/xlink">
    <g id="Add'l-Modules-2a" stroke="none" stroke-width="1" fill="none" fill-rule="evenodd">
        <g id="BEONIC_additional-modules_1_2a" transform="translate(-105, -735)" fill="#000000" fill-rule="nonzero">
            <g id="Group-12" transform="translate(0, 707)">
                <g id="Beonic_Primary_Logo_Black_RGB" transform="translate(105, 28)">
                    <path d="M179.176446,37.5515263 C181.874418,37.5515263 184.179727,36.8137006 186.092374,35.3380493 C188.005021,33.862398 189.306507,31.9180848 190,29.5019433 L186.329871,28.4189546 C185.858043,30.0814373 184.987219,31.4145901 183.717399,32.418413 C182.447579,33.4222359 180.933928,33.922564 179.176446,33.922564 C177.672295,33.922564 176.329642,33.5552345 175.154821,32.8174088 C173.976833,32.0795832 173.068009,31.0757603 172.425183,29.8059401 C171.782356,28.53612 171.459359,27.1333013 171.459359,25.5943173 C171.459359,24.0584999 171.779189,22.6525145 172.425183,21.3826944 C173.068009,20.1128742 173.976833,19.1090513 175.154821,18.3712257 C176.329642,17.6334 177.672295,17.2660705 179.176446,17.2660705 C180.933928,17.2660705 182.447579,17.7853984 183.717399,18.8208877 C184.987219,19.8563769 185.858043,21.2053629 186.329871,22.8678456 L190,21.7848569 C189.309674,19.3687153 188.008187,17.408569 186.092374,15.9012514 C184.179727,14.3939337 181.874418,13.6434415 179.176446,13.6434415 C176.918636,13.6434415 174.895157,14.1786026 173.106009,15.2425915 C171.316861,16.3097471 169.920375,17.7537321 168.916553,19.5713799 C167.91273,21.3921943 167.412401,23.3998401 167.412401,25.5943173 C167.412401,27.7919611 167.91273,29.7996069 168.916553,31.6172546 C169.920375,33.438069 171.316861,34.882054 173.106009,35.946043 C174.895157,37.0195318 176.918636,37.5515263 179.176446,37.5515263 M134.001249,23.3871735 L134.001249,37.0796978 L138.048207,37.0796978 L138.048207,23.5265054 C138.048207,21.6138586 138.611868,20.1002077 139.742356,18.9855526 C140.869677,17.8708975 142.297829,17.31357 144.023645,17.31357 C145.74946,17.31357 147.168112,17.8708975 148.282767,18.9855526 C149.397422,20.1002077 149.95475,21.6138586 149.95475,23.5265054 L149.95475,37.0796978 L154.001708,37.0796978 L154.001708,23.3871735 C154.001708,21.3795277 153.577379,19.6442124 152.731887,18.1875609 C151.88323,16.7277428 150.708408,15.6067544 149.201091,14.8214292 C147.69694,14.0361041 145.971124,13.6434415 144.026811,13.6434415 C142.079332,13.6434415 140.347183,14.0361041 138.827199,14.8214292 C137.304048,15.6067544 136.122893,16.7277428 135.274236,18.1875609 C134.425578,19.6473791 134.001249,21.3795277 134.001249,23.3871735 M110.188163,25.5974839 C110.188163,24.0616665 110.517493,22.6556811 111.176153,21.385861 C111.834813,20.1160409 112.75947,19.112218 113.953291,18.3743923 C115.143945,17.6365666 116.508764,17.2692371 118.047748,17.2692371 C119.583565,17.2692371 120.948385,17.6397333 122.142205,18.3743923 C123.33286,19.112218 124.260683,20.1160409 124.919343,21.385861 C125.578003,22.6556811 125.907333,24.0616665 125.907333,25.5974839 C125.907333,27.1364679 125.578003,28.5392866 124.919343,29.8091068 C124.260683,31.0789269 123.33286,32.0827498 122.142205,32.8205755 C120.948385,33.5584011 119.583565,33.9257306 118.047748,33.9257306 C116.511931,33.9257306 115.147112,33.5584011 113.953291,32.8205755 C112.75947,32.0827498 111.834813,31.0789269 111.176153,29.8091068 C110.517493,28.5392866 110.188163,27.1364679 110.188163,25.5974839 M118.047748,37.5515263 C120.337224,37.5515263 122.39237,37.0195318 124.213184,35.9523762 C126.030832,34.8852207 127.44315,33.4444023 128.446973,31.6235879 C129.450796,29.8027735 129.951124,27.7982943 129.951124,25.6006505 C129.951124,23.4061733 129.450796,21.3985275 128.446973,19.5777131 C127.44315,17.7568987 126.030832,16.3160804 124.213184,15.2489248 C122.39237,14.1817692 120.337224,13.6497748 118.047748,13.6497748 C115.758272,13.6497748 113.703127,14.1849359 111.882312,15.2489248 C110.061498,16.3160804 108.652346,17.7600654 107.648523,19.5777131 C106.6447,21.3985275 106.144372,23.4061733 106.144372,25.6006505 C106.144372,27.7982943 106.6447,29.8059401 107.648523,31.6235879 C108.652346,33.4444023 110.064664,34.8883873 111.882312,35.9523762 C113.703127,37.0195318 115.758272,37.5515263 118.047748,37.5515263 M84.7790939,22.8710122 C85.2509223,21.0501978 86.1344131,19.6093795 87.4390662,18.5422239 C88.7405527,17.4750683 90.3017031,16.9430739 92.1225175,16.9430739 C94.003498,16.9430739 95.5266488,17.4592352 96.6856368,18.4947244 C97.8446247,19.5302136 98.5982836,20.9900318 98.9434466,22.8710122 L84.7790939,22.8710122 Z M92.2143499,37.5515263 C94.5988251,37.5515263 96.6761369,36.9941987 98.4494518,35.8827103 C100.2196,34.7680552 101.578086,33.2385711 102.518576,31.294258 L99.649606,29.4576104 C98.9592798,30.9015954 97.9871232,32.0447502 96.7331363,32.893408 C95.4791493,33.7420659 94.0193312,34.1632282 92.3568484,34.1632282 C90.8178644,34.1632282 89.4530453,33.8085652 88.262391,33.1055725 C87.0685701,32.3994132 86.1375798,31.4272566 85.4630868,30.1891028 C84.7885938,28.950949 84.4339308,27.57663 84.4054311,26.0724789 L103.13607,26.0724789 C103.231069,23.6246711 102.854239,21.4618602 102.005581,19.5777131 C101.156924,17.6967327 99.8871035,16.2369145 98.1929544,15.2014253 C96.4988054,14.1659361 94.4753264,13.6497748 92.1225175,13.6497748 C89.8647077,13.6497748 87.8412287,14.1849359 86.0520807,15.2489248 C84.2629326,16.3160804 82.875947,17.7600654 81.8879573,19.5777131 C80.8999676,21.3985275 80.4059727,23.4061733 80.4059727,25.6006505 C80.4059727,27.7982943 80.8999676,29.8059401 81.8879573,31.6235879 C82.875947,33.4444023 84.2724325,34.8883873 86.0774137,35.9523762 C87.8760617,37.0195318 89.9248737,37.5515263 92.2143499,37.5515263 M57.7202085,25.5974839 C57.7202085,24.0616665 58.0495384,22.6556811 58.7081983,21.385861 C59.3668581,20.1160409 60.2851819,19.112218 61.460003,18.3743923 C62.6348241,17.6365666 63.99331,17.2692371 65.5291273,17.2692371 C67.0649447,17.2692371 68.4297639,17.6397333 69.6235848,18.3743923 C70.8142391,19.112218 71.7420628,20.1160409 72.4007226,21.385861 C73.0593824,22.6556811 73.3887123,24.0616665 73.3887123,25.5974839 C73.3887123,27.1364679 73.0593824,28.5392866 72.4007226,29.8091068 C71.7420628,31.0789269 70.8142391,32.0827498 69.6235848,32.8205755 C68.4297639,33.5584011 67.0649447,33.9257306 65.5291273,33.9257306 C63.99331,33.9257306 62.6348241,33.5584011 61.460003,32.8205755 C60.2820152,32.0827498 59.3668581,31.0789269 58.7081983,29.8091068 C58.0495384,28.5392866 57.7202085,27.1364679 57.7202085,25.5974839 M65.5797935,37.5515263 C67.900936,37.5515263 69.9560813,37.0195318 71.7452294,35.9523762 C73.5343775,34.8852207 74.921363,33.4444023 75.9093528,31.6235879 C76.8973425,29.8027735 77.3913374,27.7982943 77.3913374,25.6006505 C77.3913374,23.4061733 76.9036758,21.3985275 75.9315192,19.5777131 C74.9593626,17.7568987 73.6103767,16.3160804 71.8845613,15.2489248 C70.1587459,14.1817692 68.2144328,13.6497748 66.0484553,13.6497748 C64.1991412,13.6497748 62.549325,14.0646038 61.1085066,14.8974285 C59.6645217,15.7302531 58.5340334,16.898741 57.7202085,18.402892 L57.7202085,3.52921331 L53.7207501,3.52921331 L53.7207501,25.5974839 C53.7207501,27.8869601 54.2084117,29.9357721 55.1805683,31.7375867 C56.1527248,33.542568 57.5333771,34.9612199 59.3225252,35.9967091 C61.1085066,37.035365 63.1953183,37.5515263 65.5797935,37.5515263 M159.223487,14.1152699 L163.270445,14.1152699 L163.270445,37.0796978 L159.223487,37.0796978 L159.223487,14.1152699 Z M161.246966,10.4989742 C159.704815,10.4989742 158.457161,9.25132049 158.457161,7.70916985 C158.457161,6.17018585 159.704815,4.91936552 161.246966,4.91936552 C162.789116,4.91936552 164.03677,6.17018585 164.03677,7.70916985 C164.03677,9.25132049 162.789116,10.4989742 161.246966,10.4989742 M20.5629282,41.0791563 C15.2999829,41.0791563 10.0370376,39.0746771 6.03124589,35.0688854 C0.499136741,29.5367763 -1.40401014,21.48086 1.05963091,14.0519372 C1.31612825,13.2792786 2.15211956,12.8644496 2.92161156,13.1177803 C3.69427019,13.3742776 4.11226584,14.2071023 3.85576851,14.9797609 C1.7436238,21.3478614 3.37444018,28.2479563 8.1148909,32.988407 C14.9769862,39.8505024 26.1457034,39.8505024 33.0109654,32.988407 C39.8730607,26.1263117 39.8730607,14.9575945 33.0109654,8.09233254 C26.4971998,1.58173356 16.1074745,1.24607038 9.20104627,7.09484291 L14.5431574,12.436954 C16.2753061,11.1449675 18.3652843,10.4451414 20.5660948,10.4451414 C23.2609001,10.4451414 25.7973737,11.4964638 27.7036873,13.4027773 C31.639813,17.3389031 31.639813,23.7418365 27.7036873,27.6779623 C25.7973737,29.5842758 23.2609001,30.6355982 20.5660948,30.6355982 C17.8712895,30.6355982 15.3348158,29.5842758 13.4285023,27.6779623 C11.7470198,25.9996464 10.7115306,23.7703362 10.508866,21.3985275 C10.4392001,20.5878693 11.0408605,19.8753767 11.8515187,19.8057108 C12.662177,19.7265449 13.3746696,20.3377052 13.4443355,21.1483635 C13.586834,22.8266794 14.321493,24.403663 15.5121473,25.5943173 C16.8642999,26.9464699 18.6597813,27.6874622 20.5692614,27.6874622 C22.4787416,27.6874622 24.2742229,26.9433032 25.6263755,25.5943173 C28.4130132,22.8076796 28.4130132,18.2698934 25.6263755,15.4832557 C24.2773895,14.1342697 22.4819082,13.3901108 20.5692614,13.3901108 C18.6597813,13.3901108 16.8642999,14.1342697 15.515314,15.4832557 C14.9389866,16.059583 14.0079963,16.059583 13.431669,15.4832557 L6.03757916,8.09233254 C5.76208203,7.8168354 5.60691697,7.44000599 5.60691697,7.05051004 C5.60691697,6.66101408 5.76208203,6.28418467 6.03757916,6.00868753 C14.0491625,-2.00289584 27.0861937,-2.00289584 35.097777,6.00868753 C43.1093604,14.0202709 43.1093604,27.057302 35.097777,35.0688854 C31.0888187,39.0746771 25.8258734,41.0791563 20.5629282,41.0791563 Z" id="Shape"></path>
                </g>
            </g>
        </g>
    </g>
</svg>